<?xml version="1.0" encoding="UTF-8"?>
<svg version="1.1" xmlns="http://www.w3.org/2000/svg" width="547" height="355">
<path d="M0 0 C1.29809237 -0.00085442 2.59618474 -0.00170885 3.93361324 -0.00258917 C7.51618772 -0.00481417 11.09873203 -0.00084029 14.68130267 0.0041889 C18.55234626 0.00852198 22.42338826 0.00704495 26.29443359 0.00628662 C32.99449629 0.0057632 39.69454921 0.00889105 46.39460945 0.01452446 C56.08167842 0.02266403 65.76874269 0.0252572 75.45581471 0.02651245 C91.17382849 0.02869911 106.89183707 0.03534873 122.60984802 0.04481506 C137.87514724 0.05399917 153.14044504 0.06107512 168.40574646 0.06532288 C169.34727255 0.0655856 170.28879864 0.06584832 171.25885583 0.06611901 C175.98238662 0.06742408 180.70591743 0.06868778 185.42944825 0.06993091 C224.59334491 0.0802915 263.75723577 0.09789932 302.92112732 0.12025452 C302.92112732 0.78025452 302.92112732 1.44025452 302.92112732 2.12025452 C303.66670112 2.082461 304.41227491 2.04466749 305.18044186 2.00572872 C323.53308712 1.09034614 341.88105846 0.4172748 360.25184536 -0.00404453 C369.13858723 -0.21338222 378.00990254 -0.49699398 386.88670349 -0.97276306 C394.6480745 -1.38854108 402.3982949 -1.64744259 410.17048985 -1.73737377 C414.27324456 -1.78983616 418.34420835 -1.90714599 422.43641472 -2.21467781 C442.1587973 -3.63089054 456.44378505 1.02310839 471.9211216 13.63494301 C488.8002729 28.35981041 498.54636447 43.43401788 500.22859192 66.04394531 C500.96064117 78.52455413 500.64739459 91.00985543 500.16621149 103.49287695 C499.86678579 111.47447544 499.81100091 119.45319186 499.76455199 127.43960499 C499.67566795 141.66967464 499.40528711 155.88989487 499.0141449 170.11463928 C498.63549831 183.89963276 498.34646492 197.68191412 498.17332458 211.47108459 C498.16255292 212.32654165 498.15178126 213.1819987 498.14068318 214.0633787 C498.08716139 218.35664676 498.03535303 222.64993347 497.98439515 226.94323266 C497.56201202 262.34433712 496.80782675 297.72713944 495.92112732 333.12025452 C468.20112732 333.12025452 440.48112732 333.12025452 411.92112732 333.12025452 C411.92112732 306.06025452 411.92112732 279.00025452 411.92112732 251.12025452 C378.26112732 251.12025452 344.60112732 251.12025452 309.92112732 251.12025452 C309.92112732 278.18025452 309.92112732 305.24025452 309.92112732 333.12025452 C302.04595946 334.2452785 302.04595946 334.2452785 298.269104 334.2784729 C297.41221985 334.28826172 296.55533569 334.29805054 295.67248535 334.30813599 C294.753983 334.31389145 293.83548065 334.31964691 292.8891449 334.32557678 C291.90185394 334.33547638 290.91456299 334.34537598 289.89735413 334.35557556 C286.6201464 334.38720593 283.34292595 334.41204617 280.06565857 334.43666077 C277.73075061 334.45731905 275.39584564 334.47831716 273.0609436 334.49963379 C268.12885994 334.54365856 263.19676346 334.58449917 258.26463318 334.62294006 C252.14186669 334.67076183 246.01917602 334.72469523 239.89648151 334.78090668 C208.04730292 335.07134163 176.20051024 335.18026293 144.35009766 335.13495922 C137.11435891 335.12474714 129.87864516 335.11897219 122.64289856 335.12016296 C104.13698808 335.12291528 85.63141637 335.10478782 67.12560558 335.03996754 C58.40007135 335.01012287 49.67479215 334.99234713 40.94920349 335.00013733 C33.15618328 335.00706302 25.36353104 334.99313138 17.57060176 334.95381844 C13.49604952 334.93395323 9.42207747 334.92409971 5.34749413 334.93983078 C1.56493592 334.9541409 -2.2164876 334.9404899 -5.99889946 334.90530205 C-7.37795108 334.89735993 -8.75710579 334.89955066 -10.13611603 334.91286278 C-21.79911733 335.0159695 -21.79911733 335.0159695 -26.35296631 331.24357605 C-30.29116174 327.20413182 -31.88145765 322.56016653 -33.07887268 317.12025452 C-32.99699096 312.12546977 -31.85520735 308.28475651 -29.07887268 304.12025452 C-22.71102138 298.62074657 -15.01650412 299.75248781 -7.07887268 300.12025452 C-6.79656799 299.55435608 -6.51426331 298.98845764 -6.22340393 298.40541077 C-5.48330021 296.92772927 -4.7314345 295.45585518 -3.96559143 293.99134827 C9.8412041 265.97299773 9.7646702 234.89684457 -0.01637268 205.87025452 C-0.24469788 205.17915588 -0.47302307 204.48805725 -0.70826721 203.77601624 C-2.51993656 198.71703852 -5.06256111 193.6284103 -10.07887268 191.12025452 C-10.07887268 190.46025452 -10.07887268 189.80025452 -10.07887268 189.12025452 C-13.15650334 188.09437763 -15.53976685 187.95235273 -18.76637268 187.80775452 C-25.69989441 187.27892659 -31.41516667 185.48083614 -36.07887268 180.12025452 C-38.07343269 174.87141239 -38.89982195 169.68446626 -38.07887268 164.12025452 C-35.4165323 158.79557375 -32.24375952 156.70269794 -27.07887268 154.12025452 C-25.20507663 154.04991683 -23.32886167 154.03595232 -21.45387268 154.05775452 C-19.94953674 154.07128967 -19.94953674 154.07128967 -18.41481018 154.08509827 C-17.25852112 154.10250061 -17.25852112 154.10250061 -16.07887268 154.12025452 C-16.07887268 153.46025452 -16.07887268 152.80025452 -16.07887268 152.12025452 C-14.58277893 150.90150452 -14.58277893 150.90150452 -12.64137268 149.62025452 C-9.85355421 147.83371822 -9.85355421 147.83371822 -8.07887268 145.12025452 C-8.73887268 144.46025452 -9.39887268 143.80025452 -10.07887268 143.12025452 C-9.30543518 142.88177795 -8.53199768 142.64330139 -7.73512268 142.39759827 C-2.81475185 140.03147877 -1.81024606 135.04099991 -0.07887268 130.12025452 C9.00532379 101.09562096 8.79845032 75.95451959 -1.80934143 47.59681702 C-2.72538141 45.08827676 -3.52501932 42.72269802 -4.07887268 40.12025452 C-4.73887268 40.12025452 -5.39887268 40.12025452 -6.07887268 40.12025452 C-6.66023987 39.47056702 -7.24160706 38.82087952 -7.84059143 38.15150452 C-10.67106473 35.58283764 -12.12670871 35.65891602 -15.89137268 35.62025452 C-21.5604037 35.29571803 -24.64234095 34.72493655 -29.07887268 31.12025452 C-31.84488571 27.42151616 -33.10229898 24.38527446 -33.01637268 19.74525452 C-32.70699768 18.54900452 -32.39762268 17.35275452 -32.07887268 16.12025452 C-31.86617737 15.27720764 -31.65348206 14.43416077 -31.43434143 13.56556702 C-29.30876723 5.72253923 -29.30876723 5.72253923 -26.07887268 3.12025452 C-18.44931089 -1.1702098 -8.49051536 -0.02055267 0 0 Z M309.92112732 86.12025452 C309.92112732 112.85025452 309.92112732 139.58025452 309.92112732 167.12025452 C343.58112732 167.12025452 377.24112732 167.12025452 411.92112732 167.12025452 C411.92112732 140.39025452 411.92112732 113.66025452 411.92112732 86.12025452 C378.26112732 86.12025452 344.60112732 86.12025452 309.92112732 86.12025452 Z " fill="#627455" transform="translate(41.07887268066406,15.879745483398438)"/>
<path d="M0 0 C22.41835426 -0.03292996 44.83638046 -0.02593212 67.25469971 0.02846622 C77.66419423 0.05279631 88.07339775 0.06411078 98.48291016 0.04467773 C107.55695726 0.02777095 116.63059731 0.03539399 125.7045908 0.07234758 C130.50837927 0.09105756 135.31147949 0.09756868 140.11526489 0.07469368 C144.63986251 0.05353599 149.16320112 0.06525638 153.68768883 0.10184479 C155.34525102 0.10951796 157.00291866 0.10533256 158.66040993 0.08818626 C172.73330324 -0.04620355 172.73330324 -0.04620355 177.86181641 4.37181091 C178.94150028 5.55128805 179.99131847 6.75925621 181 8 C181.99571335 8.98352543 182.99503436 9.96343048 184 10.9375 C195.54377434 24.94142297 200.15770498 43.55242969 200.25 61.25 C200.2809375 62.70986328 200.2809375 62.70986328 200.3125 64.19921875 C200.34994083 71.24745545 199.1843928 77.31225103 197 84 C196.65839844 85.06992188 196.31679688 86.13984375 195.96484375 87.2421875 C190.37377163 101.57063849 179.2556416 114.53337559 165.70819664 121.93409729 C160.59648254 123.94598588 155.42849547 123.51460706 150.01489258 123.32617188 C147.40963955 123.28039795 144.80438433 123.23474841 142.1991272 123.18920898 C140.83544351 123.15674917 139.47177673 123.12357128 138.10812759 123.08969116 C132.07192923 122.94724321 126.03466089 122.94027718 119.99709165 122.91736889 C116.5052228 122.90174947 113.01344936 122.87444644 109.52165222 122.84753418 C108.07829989 122.8366175 106.63494751 122.82570754 105.19159508 122.81480408 C104.46554125 122.80928213 103.73948741 122.80376019 102.99143195 122.79807091 C99.17323347 122.7692665 95.35502598 122.74170357 91.53681946 122.71398926 C84.35896227 122.66171044 77.18111339 122.60837164 70.00326711 122.5546174 C61.8092863 122.49330765 53.61529657 122.43323225 45.42130601 122.37324238 C28.61419398 122.25016739 11.80709335 122.12560127 -5 122 C-4.74241913 121.47123764 -4.48483826 120.94247528 -4.2194519 120.39768982 C-3.03343734 117.95422947 -1.85654015 115.50647914 -0.6796875 113.05859375 C-0.27451904 112.22726929 0.13064941 111.39594482 0.5480957 110.53942871 C13.85789799 82.75099379 16.49511369 47.51316552 6.46875 18.30078125 C5.49575568 15.63828793 4.44969481 13.03229183 3.3671875 10.41015625 C1.99256758 6.98146141 0.98942536 3.55596199 0 0 Z " fill="#FEFEFE" transform="translate(60,50)"/>
<path d="M0 0 C20.46245247 -0.07012685 40.9248805 -0.1230062 61.38742828 -0.15543652 C70.88886028 -0.17089569 80.39021754 -0.19196707 89.89160156 -0.22631836 C98.17442993 -0.25624977 106.45720417 -0.27558191 114.74008512 -0.28226548 C119.12452618 -0.2861714 123.50881238 -0.29533107 127.89320374 -0.31719017 C132.0234301 -0.33761446 136.15343841 -0.34382183 140.28371048 -0.33932304 C141.79616609 -0.34014559 143.3086293 -0.34607583 144.82104111 -0.35761642 C159.71850106 -0.46567768 169.11320976 3.41210435 180.125 13.625 C193.15869128 27.26429714 198.42509866 43.44828227 198.21875 61.74609375 C198.0549556 67.55977133 197.0113457 72.55296507 195 78 C194.70996094 78.96808594 194.41992188 79.93617188 194.12109375 80.93359375 C191.91337534 88.18488644 189.01918762 94.58097432 185 101 C184.36570887 102.02769123 183.73141773 103.05538246 183.07790565 104.11421585 C179.64482921 108.95266343 177.16241823 112.35820263 171.34290695 114.08541107 C166.9229069 114.62646892 162.51732888 114.48721626 158.07568359 114.36230469 C156.37965131 114.35891472 154.68360145 114.36082974 152.98757935 114.36761475 C148.40824033 114.37104229 143.83271345 114.30076757 139.25425673 114.21672726 C134.46052637 114.14143901 129.6666974 114.13464152 124.87246704 114.12042236 C115.80547415 114.08320291 106.74022852 113.98484103 97.67400324 113.86422849 C87.34773424 113.72985084 77.02137942 113.66405927 66.694453 113.60388327 C45.4619954 113.47863046 24.231108 113.26771752 3 113 C3.62171065 109.12311746 4.37642293 105.47200625 5.55859375 101.7265625 C9.12909819 90.15733024 12.34100588 79.14945532 13 67 C13.06356689 65.88093262 13.06356689 65.88093262 13.12841797 64.73925781 C14.01606918 46.72840951 11.32917389 29.30199591 4.46484375 12.60546875 C3.33973975 9.83621278 2.34224395 7.1087449 1.40844727 4.2746582 C1.0106179 3.07049004 1.0106179 3.07049004 0.60475159 1.84199524 C0.40518356 1.23413681 0.20561554 0.62627838 0 0 Z " fill="#FEFEFE" transform="translate(59,203)"/>
<path d="M0 0 C-1.39332574 3.36720387 -2.9789286 4.9859524 -6 7 C-5.37162381 3.35541809 -4.14650034 0 0 0 Z " fill="#4E7B44" transform="translate(11,172)"/>
</svg>
